<svg width="726" height="375" viewBox="0 0 726 375" fill="none" xmlns="http://www.w3.org/2000/svg">
<rect width="726" height="375" fill="#66121E"/>
<ellipse cx="364" cy="298" rx="110" ry="8" fill="black" fill-opacity="0.18"/>
<g clip-path="url(#clip0_248:477)">
<path d="M324.303 244.952L316.921 238.349C311.818 233.78 311.382 225.871 315.949 220.766L354.344 177.958C358.919 172.861 366.837 172.426 371.949 176.987L379.331 183.59C384.434 188.159 384.87 196.068 380.303 201.173L341.908 243.982C337.333 249.087 329.415 249.522 324.303 244.952Z" fill="#A42011"/>
<path d="M366.276 255.071L360.377 261.649C356.279 266.218 349.249 266.603 344.674 262.511L316.904 237.671C312.329 233.579 311.944 226.557 316.041 221.987L321.94 215.409C326.038 210.84 333.068 210.455 337.643 214.547L365.413 239.387C369.988 243.479 370.373 250.501 366.276 255.071Z" fill="#A42011"/>
<path d="M374.513 260.837L369.443 267.382C367.583 269.792 364.114 270.227 361.709 268.369L355.156 263.306C352.743 261.448 352.307 257.983 354.168 255.581L359.237 249.036C361.097 246.626 364.567 246.191 366.971 248.049L373.524 253.112C375.929 254.97 376.373 258.435 374.513 260.837Z" fill="#D8D5C5"/>
<path d="M445.487 245.036L452.869 238.433C457.972 233.863 458.408 225.954 453.841 220.849L415.447 178.041C410.871 172.944 402.953 172.509 397.841 177.07L390.459 183.674C385.356 188.243 384.92 196.152 389.487 201.257L427.882 244.065C432.457 249.17 440.375 249.606 445.487 245.036Z" fill="#A42011"/>
<path d="M403.514 255.154L409.413 261.732C413.511 266.302 420.541 266.687 425.116 262.594L452.886 237.755C457.461 233.662 457.847 226.641 453.749 222.071L447.85 215.493C443.752 210.923 436.722 210.538 432.147 214.631L404.377 239.471C399.802 243.563 399.417 250.585 403.514 255.154Z" fill="#A42011"/>
<path d="M395.277 260.921L400.347 267.465C402.207 269.876 405.676 270.311 408.081 268.453L414.634 263.389C417.047 261.532 417.483 258.067 415.623 255.665L410.553 249.12C408.693 246.71 405.224 246.275 402.819 248.133L396.266 253.196C393.861 255.054 393.417 258.519 395.277 260.921Z" fill="#D8D5C5"/>
<path d="M404.679 170.986L415.605 184.435L412.094 210.748L408.692 254.895H373.063V168.559L404.679 170.986Z" fill="#FAF9FF"/>
<path d="M421.656 295.242H364.332V254.895H416.779L421.656 295.242Z" fill="#680810"/>
<path d="M364.332 162.751L402.643 162.977C413.327 163.044 421.949 171.706 421.949 182.368V251.087C421.949 251.087 418.145 285.877 451.218 295.234H418.337C407.989 295.234 399.601 286.857 399.601 276.521V212.112C399.601 207.701 401.796 203.626 405.4 201.081C409.095 198.47 413.167 194.152 413.067 187.833C412.874 176.334 402.525 172.827 388.28 172.434C374.035 172.04 364.332 162.751 364.332 162.751Z" fill="#9F1E0F"/>
<path d="M283.495 284.137C283.495 284.137 274.127 282.379 269.443 289.108C264.759 295.828 251 297 251 297H298.419L297.104 289.108L283.495 284.137Z" fill="#680810"/>
<path d="M408.592 90.5922C408.659 91.2617 408.701 91.948 408.701 92.6426V90.5922H408.592Z" fill="#C0B9A5"/>
<path d="M315.689 96.5426C315.689 103.849 318.957 110.435 324.202 115.08L352.902 152.524H344.238L337.794 161.202H365.454L369.644 152.524H408.692V92.6342C408.692 91.9479 408.659 91.2533 408.583 90.5838C407.494 79.5951 397.631 71 385.632 71C376.943 71 369.368 75.511 365.446 82.1895C360.536 75.4356 352.282 71 342.914 71C327.881 71 315.689 82.4406 315.689 96.5426Z" fill="#C0B9A5"/>
<path d="M383.118 175.957H405.55C411.08 175.957 415.605 171.438 415.605 165.914V125.968C415.605 120.445 411.08 115.926 405.55 115.926H383.118C377.588 115.926 373.063 120.445 373.063 125.968V165.914C373.063 171.438 377.588 175.957 383.118 175.957Z" fill="#D8D5C5"/>
<path d="M369.15 167.245C376.092 167.245 381.719 161.624 381.719 154.691C381.719 147.758 376.092 142.138 369.15 142.138C362.208 142.138 356.581 147.758 356.581 154.691C356.581 161.624 362.208 167.245 369.15 167.245Z" fill="#D6D3C2"/>
<path d="M412.094 160.366H394.338C394.338 160.366 396.676 165.822 403.221 165.822C409.765 165.822 412.094 160.366 412.094 160.366Z" fill="#E1A229"/>
<path d="M298.419 297C298.419 297 289.345 285.308 283.487 284.137C283.487 284.137 354.084 303.436 364.332 162.759C364.332 162.759 390.92 167.488 390.92 186.779V274.144C390.92 286.765 380.672 297 368.036 297H298.419Z" fill="#A42011"/>
</g>
<defs>
<clipPath id="clip0_248:477">
<rect width="206" height="226" fill="white" transform="translate(251 71)"/>
</clipPath>
</defs>
</svg>
