<svg width="726" height="375" viewBox="0 0 726 375" fill="none" xmlns="http://www.w3.org/2000/svg">
<rect width="726" height="375" fill="#B9A20F"/>
<g clip-path="url(#clip0_248:427)">
<path d="M409.413 267.471C400.938 272.394 390.068 269.466 385.159 260.939L368.358 231.753C363.449 223.226 366.368 212.327 374.844 207.433C377.65 205.823 380.719 205.033 383.724 205.033C389.862 205.033 395.823 208.224 399.126 213.937L415.928 243.123C420.837 251.65 417.917 262.549 409.413 267.471Z" fill="#3E131C"/>
<path d="M425.454 309.693C425.454 311.16 424.872 312.478 423.906 313.44C422.939 314.409 421.625 314.993 420.169 314.993H386.04C383.092 314.993 380.754 312.621 380.754 309.693C380.754 308.225 381.337 306.879 382.303 305.946C382.715 305.533 383.177 305.184 383.703 304.92C385.074 304.243 385.983 302.84 385.983 301.287V255.311C385.983 249.976 390.281 245.644 395.595 245.644H411.871C417.192 245.644 421.512 249.983 421.512 255.311V302.049C421.512 303.339 422.094 304.571 423.146 305.305C424.552 306.266 425.454 307.876 425.454 309.693Z" fill="#3E131C"/>
<path d="M366.112 231.753L349.282 260.939C344.402 269.466 333.532 272.394 325.028 267.471C316.525 262.549 313.605 251.65 318.514 243.123L335.344 213.937C338.619 208.224 344.579 205.033 350.717 205.033C353.73 205.033 356.799 205.823 359.598 207.433C368.102 212.327 371.021 223.226 366.112 231.753Z" fill="#4A141D"/>
<path d="M353.723 309.693C353.723 312.621 351.357 314.993 348.43 314.993H314.273C312.809 314.993 311.495 314.409 310.536 313.44C309.598 312.471 308.987 311.153 308.987 309.693C308.987 307.876 309.925 306.266 311.325 305.298C312.376 304.564 312.959 303.331 312.959 302.042V255.304C312.959 249.968 317.257 245.637 322.571 245.637H338.854C344.175 245.637 348.494 249.976 348.494 255.304V301.28C348.494 302.833 349.368 304.236 350.775 304.913C351.3 305.176 351.769 305.526 352.174 305.939C353.14 306.886 353.723 308.233 353.723 309.693Z" fill="#4A141D"/>
<path d="M340.722 315H314.28C314.28 312.272 316.241 309.992 318.777 309.522L318.834 309.408L320.823 305.953L322.84 309.408L323.189 309.992L323.508 309.408L325.526 305.953L327.515 309.408L327.835 309.935L328.126 309.408L330.144 305.953L332.161 309.408H335.173C336.694 309.408 338.093 310.021 339.088 311.046C340.111 312.072 340.722 313.476 340.722 315Z" fill="#5B1A28"/>
<path d="M322.84 309.401H323.508L323.188 309.992L322.84 309.401Z" fill="#5B1A28"/>
<path d="M328.126 309.401L327.835 309.928L327.515 309.401H328.126Z" fill="#5B1A28"/>
<path d="M405.57 163.16V193.72C405.57 215.255 388.157 232.694 366.702 232.694C345.226 232.694 327.835 215.262 327.835 193.72V163.16C327.835 159.527 330.783 156.571 334.406 156.571H398.984C402.621 156.571 405.57 159.527 405.57 163.16Z" fill="#4A141D"/>
<path d="M388.448 178.397V210.895C388.448 222.941 378.715 232.694 366.709 232.694C354.703 232.694 344.97 222.934 344.97 210.895V178.397C344.97 166.351 354.703 156.571 366.709 156.571C372.727 156.571 378.161 159 382.083 162.96C386.026 166.914 388.448 172.364 388.448 178.397Z" fill="#561523"/>
<path d="M413.598 309.401H414.216L413.917 309.928L413.598 309.401Z" fill="#4A141D"/>
<path d="M418.89 309.401L418.563 309.992L418.215 309.401H418.89Z" fill="#4A141D"/>
<path d="M420.169 315H393.727C393.727 313.476 394.338 312.072 395.361 311.046C396.355 310.021 397.726 309.408 399.275 309.408H402.316L404.305 305.953L406.322 309.408L406.642 309.935L406.933 309.408L408.951 305.953L410.94 309.408L411.288 309.992L411.608 309.408L413.626 305.953L415.643 309.408L415.7 309.522H415.728C418.265 310.049 420.169 312.3 420.169 315Z" fill="#4A141D"/>
<path d="M454.042 135.413C450.738 138.726 446.376 140.407 442.036 140.407C437.695 140.407 433.34 138.726 430.029 135.413L410.542 115.873C403.907 109.22 403.907 98.4488 410.542 91.7954C413.846 88.4829 418.208 86.8017 422.549 86.8017C426.911 86.7803 431.244 88.4402 434.576 91.774L454.063 111.314C460.691 117.968 460.677 128.76 454.042 135.413Z" fill="#4A141D"/>
<path d="M485.741 167.156C483.61 169.293 480.825 170.348 478.054 170.348C475.262 170.369 472.477 169.272 470.367 167.156L422.406 119.065C418.151 114.798 418.151 107.916 422.406 103.649C424.538 101.512 427.28 100.458 430.093 100.458C432.864 100.458 435.649 101.512 437.78 103.649L485.741 151.741C489.975 155.986 489.975 162.903 485.741 167.156Z" fill="#4A141D"/>
<path d="M487.844 169.265C482.31 174.814 473.316 174.835 467.782 169.286C462.247 163.737 462.247 154.697 467.782 149.148C473.316 143.598 482.31 143.613 487.844 149.169C493.385 154.718 493.385 163.715 487.844 169.265Z" fill="#4A141D"/>
<path d="M424.964 98.4132L442.476 107.19L449.772 108.372L441.737 110.844L435.706 109.184L444.977 126.281L454.51 124.486L443.613 129.351L436.373 117.683L437.531 128.895L444.685 134.338L436.565 131.139L434.498 136.795L434.718 128.924L434.398 124.023L430.796 109.697L426.037 106.442L424.964 98.4132Z" fill="#CBB62D"/>
<path d="M435.613 127.413C435.613 141.098 430.093 153.493 421.149 162.455C412.205 171.416 399.851 176.958 386.232 176.958H347.194C319.899 176.958 297.784 154.775 297.784 127.413C297.784 113.729 303.304 101.334 312.248 92.3724C321.192 83.4108 333.554 77.8687 347.194 77.8687H386.232C413.491 77.8687 435.613 100.052 435.613 127.413Z" fill="#66121E"/>
<path d="M306.536 130.327L315.075 126.267L331.401 139.844L319.295 124.265L329.803 119.25L328.687 114.655L334.605 116.336L330.321 122.997L337.454 135.82L334.427 124.265L338.022 115.888L327.6 110.182L325.583 101.861L340.189 93.6263L391.546 89.5872L392.356 102.88L394.963 136.076L401.35 151.285L414.933 152.553L404.774 148.891L397.726 129.779L411.281 133.447L418.35 146.712L416.752 134.252L422.314 128.297L415.608 131.723L398.614 126.808L397.726 96.8319L403.602 114.192L427.706 122.57L407.509 111.927L405.726 106.192L415.793 107.097L414.009 113.43L421.54 115.247L416.752 112.504L418.222 107.311L421.32 107.589L430.669 114.192L422.314 104.725L404.71 102.88H404.696L399.566 86.3246L405.733 90.6059L405.569 90.5703L406.82 98.3137L412.07 101.526L408.823 96.0483L407.971 92.1588L411.729 94.7732L399.566 77.876H390.828L390.849 78.1823L346.711 77.8902L345.34 77.876H338.932L316.347 102.88L322.507 115.247L306.536 130.327Z" fill="#CBB62D"/>
<path d="M337.447 92.3938L338.839 97.6297L339.159 98.7908C339.237 99.4034 339.337 99.895 339.571 100.379C339.912 101.07 340.409 101.662 341.042 102.075C341.759 102.588 342.626 102.873 343.564 102.873C346.015 102.873 347.997 100.885 347.997 98.4275C347.997 97.4872 347.705 96.6181 347.201 95.8986C346.867 95.4 346.427 94.9726 345.908 94.652C345.233 94.2246 344.437 93.9752 343.564 93.9752C343.521 93.9752 343.464 93.9752 343.429 93.9895L342.668 93.7829L337.447 92.3938Z" fill="#66121E"/>
<path d="M432.374 209.193C430.243 207.056 429.191 204.263 429.191 201.485C429.191 198.664 430.243 195.914 432.374 193.777L470.311 155.737C474.545 151.491 481.429 151.47 485.684 155.737C487.816 157.874 488.846 160.645 488.867 163.445C488.846 166.244 487.816 169.016 485.684 171.153L447.748 209.193C443.506 213.438 436.608 213.438 432.374 209.193Z" fill="#4A141D"/>
<path d="M466.162 184.217L462.496 180.221L463.818 182.657L461.864 182.451L457.147 181.952L463.391 183.576L465.025 184.787L457.68 188.456L455.513 183.619L448.97 186.411L453.325 185.678L455.023 190.052L443.649 197.211L436.21 197.389L444.252 198.792L453.936 193.692L451.996 201.82L457.324 192.231L469.032 187.836L479.085 177.756L466.162 184.217Z" fill="#CBB62D"/>
<path d="M319.047 83.9879H312.497V83.995H319.047V83.9879Z" fill="#EFEFEF"/>
<path d="M325.646 61.8762L311.758 75.8029C310.593 76.9712 310.593 78.8661 311.758 80.0343L320.851 89.1526C322.13 90.4348 324.197 90.4348 325.476 89.1526C326.755 87.8703 326.755 85.7973 325.476 84.5151L321.014 80.0415C319.849 78.8732 319.849 76.9783 321.014 75.81L325.646 71.1654C326.812 69.9971 328.701 69.9971 329.866 71.1654L346.405 87.7492C347.684 89.0315 349.758 89.0315 351.037 87.7492C352.316 86.467 352.316 84.3869 351.037 83.1046L329.866 61.8762C328.701 60.7079 326.812 60.7079 325.646 61.8762Z" fill="#EFEFEF"/>
<path d="M411.246 61.8762L425.135 75.8029C426.3 76.9712 426.3 78.8661 425.135 80.0343L416.041 89.1526C414.762 90.4348 412.695 90.4348 411.416 89.1526C410.137 87.8703 410.137 85.7973 411.416 84.5151L415.878 80.0415C417.043 78.8732 417.043 76.9783 415.878 75.81L411.246 71.1654C410.081 69.9971 408.191 69.9971 407.026 71.1654L390.487 87.7492C389.208 89.0315 387.134 89.0315 385.855 87.7492C384.576 86.467 384.576 84.3869 385.855 83.1046L407.026 61.8762C408.184 60.7079 410.081 60.7079 411.246 61.8762Z" fill="#EFEFEF"/>
<path d="M354.142 142.338H384.605C395.361 142.338 403.538 134.48 401.776 125.846L391.78 76.8643C391.148 73.7727 387.859 71.5002 384.008 71.5002H354.746C350.895 71.5002 347.606 73.7656 346.974 76.8643L336.971 125.846C335.209 134.48 343.393 142.338 354.142 142.338Z" fill="#7C1722"/>
<path d="M346.398 79.7992C347.897 77.0709 350.796 75.233 354.128 75.233C357.566 75.233 360.543 77.1991 361.999 80.0628C362.006 80.0699 362.021 80.0913 362.021 80.1055C362.106 80.2694 362.184 80.4261 362.255 80.6042C362.262 80.6113 362.262 80.6327 362.276 80.6541C363.605 83.2043 366.283 84.9567 369.359 84.9567C372.279 84.9567 374.823 83.3967 376.222 81.0601C376.222 81.053 376.222 81.053 376.222 81.053C376.4 80.5615 376.627 80.0913 376.89 79.6496C378.417 77.0068 381.266 75.2401 384.527 75.2401C387.923 75.2401 390.885 77.1635 392.356 79.9844L392.065 78.1964C391.418 74.3354 389.77 71.5073 384.193 71.5073H354.547C349.489 71.5073 347.308 74.3354 346.676 78.1964L346.398 79.7992Z" fill="#260D11"/>
<path d="M398.884 108.821C398.366 107.923 397.08 107.923 396.561 108.821L394.295 112.76L392.029 116.7C391.51 117.597 392.156 118.716 393.187 118.716H397.719H402.252C403.282 118.716 403.928 117.597 403.41 116.7L401.143 112.76L398.884 108.821Z" fill="#EFEFEF"/>
<path d="M353.154 111.271C352.636 110.374 351.35 110.374 350.831 111.271L348.565 115.211L346.299 119.15C345.78 120.048 346.426 121.166 347.457 121.166H351.989H356.522C357.552 121.166 358.198 120.048 357.68 119.15L355.413 115.211L353.154 111.271Z" fill="#EFEFEF"/>
<path d="M342.022 118.894C339.038 119.072 336.729 120.988 336.729 123.296V126.815C336.729 137.095 342.917 145.429 350.547 145.429H395.674C403.304 145.429 409.491 137.095 409.491 126.815V119.642C409.491 117.07 406.65 115.04 403.318 115.239L342.022 118.894Z" fill="#A01E27"/>
<path d="M385.251 95.4998C386.962 95.4998 388.349 94.1092 388.349 92.3939C388.349 90.6785 386.962 89.288 385.251 89.288C383.541 89.288 382.154 90.6785 382.154 92.3939C382.154 94.1092 383.541 95.4998 385.251 95.4998Z" fill="#4B1721"/>
<path d="M385.252 94.2245C386.26 94.2245 387.077 93.4049 387.077 92.3938C387.077 91.3827 386.26 90.563 385.252 90.563C384.243 90.563 383.426 91.3827 383.426 92.3938C383.426 93.4049 384.243 94.2245 385.252 94.2245Z" fill="#D2DB26"/>
<path d="M358.213 95.4998C359.923 95.4998 361.31 94.1092 361.31 92.3939C361.31 90.6785 359.923 89.288 358.213 89.288C356.502 89.288 355.115 90.6785 355.115 92.3939C355.115 94.1092 356.502 95.4998 358.213 95.4998Z" fill="#4B1721"/>
<path d="M358.213 94.2245C359.221 94.2245 360.038 93.4049 360.038 92.3938C360.038 91.3827 359.221 90.563 358.213 90.563C357.204 90.563 356.387 91.3827 356.387 92.3938C356.387 93.4049 357.204 94.2245 358.213 94.2245Z" fill="#D2DB26"/>
<path d="M385.252 94.2245C386.26 94.2245 387.077 93.4049 387.077 92.3938C387.077 91.3827 386.26 90.563 385.252 90.563C384.243 90.563 383.426 91.3827 383.426 92.3938C383.426 93.4049 384.243 94.2245 385.252 94.2245Z" fill="#D2DB26"/>
<path d="M358.213 94.2245C359.221 94.2245 360.038 93.4049 360.038 92.3938C360.038 91.3827 359.221 90.563 358.213 90.563C357.204 90.563 356.387 91.3827 356.387 92.3938C356.387 93.4049 357.204 94.2245 358.213 94.2245Z" fill="#D2DB26"/>
<path d="M375.54 114.192H367.931C367.256 114.192 366.709 113.644 366.709 112.967V95.3359C366.709 94.6591 367.256 94.1106 367.931 94.1106H375.54C376.215 94.1106 376.762 94.6591 376.762 95.3359V112.967C376.762 113.644 376.215 114.192 375.54 114.192Z" fill="#66121E"/>
<path d="M390.075 91.1044H381.678C381.365 91.1044 381.117 90.8551 381.117 90.5416V87.0297C381.117 86.7162 381.365 86.4669 381.678 86.4669H390.075C390.388 86.4669 390.636 86.7162 390.636 87.0297V90.5416C390.636 90.8479 390.388 91.1044 390.075 91.1044Z" fill="#260D11"/>
<path d="M363.193 91.1044H354.796C354.483 91.1044 354.234 90.8551 354.234 90.5416V87.0297C354.234 86.7162 354.483 86.4669 354.796 86.4669H363.193C363.505 86.4669 363.754 86.7162 363.754 87.0297V90.5416C363.754 90.8479 363.505 91.1044 363.193 91.1044Z" fill="#260D11"/>
<path d="M237.298 154.483C241.553 150.216 248.437 150.238 252.672 154.483L290.608 192.523C292.74 194.661 293.791 197.41 293.791 200.231C293.791 203.009 292.74 205.802 290.608 207.939C286.374 212.185 279.469 212.185 275.235 207.939L237.298 169.899C235.167 167.762 234.137 164.991 234.115 162.191C234.137 159.391 235.167 156.62 237.298 154.483Z" fill="#66121E"/>
<path d="M302.593 104.746C306.849 109.013 306.827 115.916 302.593 120.162L254.632 168.253C252.501 170.39 249.738 171.466 246.946 171.445C244.175 171.445 241.39 170.39 239.259 168.253C235.025 164.008 235.003 157.105 239.259 152.838L287.22 104.746C289.351 102.609 292.114 101.576 294.906 101.555C297.691 101.576 300.462 102.609 302.593 104.746Z" fill="#66121E"/>
<path d="M314.429 92.8782C321.086 99.5531 321.086 110.324 314.429 116.992L294.963 136.51C291.66 139.823 287.298 141.504 282.957 141.504C278.595 141.525 274.24 139.844 270.908 136.51C264.273 129.857 264.294 119.065 270.93 112.411L290.395 92.8925C292.235 91.0475 294.381 89.7225 296.697 88.8961C298.537 88.2123 300.476 87.8774 302.423 87.8774C303.496 87.8774 304.554 87.9843 305.627 88.1909C308.852 88.8106 311.928 90.3707 314.429 92.8782Z" fill="#66121E"/>
<path d="M247.173 174.529C255.001 174.529 261.346 168.166 261.346 160.318C261.346 152.469 255.001 146.106 247.173 146.106C239.345 146.106 233 152.469 233 160.318C233 168.166 239.345 174.529 247.173 174.529Z" fill="#66121E"/>
<path d="M296.001 122.128L302.444 123.581L300.981 129.401L299.531 125.219L294.615 124.97L292.321 129.672L271.889 134.623L288.584 126.131L290.466 115.047L282.943 118.025L279.902 124.343L280.606 117.134L291.432 109.341L294.715 89.929L296.697 88.8961C298.537 88.2123 300.476 87.8774 302.423 87.8774C303.496 87.8774 304.554 87.9843 305.627 88.1909L296.001 122.128Z" fill="#CBB62D"/>
<ellipse cx="369" cy="314" rx="110" ry="8" fill="black" fill-opacity="0.18"/>
</g>
<defs>
<clipPath id="clip0_248:427">
<rect width="259" height="254" fill="white" transform="translate(233 61)"/>
</clipPath>
</defs>
</svg>
