<svg width="726" height="375" viewBox="0 0 726 375" fill="none" xmlns="http://www.w3.org/2000/svg">
<rect width="726" height="375" fill="#B9A20F"/>
<ellipse cx="362.5" cy="300.354" rx="95.5" ry="7" fill="black" fill-opacity="0.18"/>
<path d="M386.142 176.095L387.657 178.25L406.933 164.846L405.417 162.691L386.142 176.095Z" fill="#D3D3D3"/>
<path d="M388.961 180.102L390.477 182.257L409.752 168.852L408.236 166.697L388.961 180.102Z" fill="#D3D3D3"/>
<path d="M417.026 166.183L411.348 170.13C410.184 170.941 408.579 170.658 407.764 169.501L404.299 164.574C403.483 163.416 403.767 161.821 404.931 161.01L410.61 157.063C411.774 156.252 413.378 156.534 414.194 157.692L417.659 162.619C418.475 163.776 418.19 165.371 417.026 166.183Z" fill="#D3D3D3"/>
<path d="M353.971 293.493L353.975 299.532L329.267 299.546L329.263 286.693L347.119 286.684C350.9 286.679 353.971 289.728 353.971 293.493Z" fill="#A57B3D"/>
<path d="M386.966 293.493L386.97 299.532L362.262 299.546L362.258 286.693L380.114 286.684C383.895 286.679 386.966 289.728 386.966 293.493Z" fill="#A57B3D"/>
<path d="M368.926 253.923C372.135 253.923 374.737 251.336 374.737 248.144C374.737 244.952 372.135 242.365 368.926 242.365C365.716 242.365 363.114 244.952 363.114 248.144C363.114 251.336 365.716 253.923 368.926 253.923Z" fill="#D3D3D3"/>
<path d="M372.78 216.213H365.071V247.278H372.78V216.213Z" fill="#D3D3D3"/>
<path d="M367.963 248.381H364.108V280.266H367.963V248.381Z" fill="#D3D3D3"/>
<path d="M373.742 248.381H369.888V280.266H373.742V248.381Z" fill="#D3D3D3"/>
<path d="M377.666 155.326C381.425 155.326 384.472 152.296 384.472 148.558C384.472 144.82 381.425 141.79 377.666 141.79C373.908 141.79 370.86 144.82 370.86 148.558C370.86 152.296 373.908 155.326 377.666 155.326Z" fill="#D3D3D3"/>
<path d="M379.591 181.323C383.35 181.323 386.397 178.293 386.397 174.555C386.397 170.817 383.35 167.787 379.591 167.787C375.832 167.787 372.785 170.817 372.785 174.555C372.785 178.293 375.832 181.323 379.591 181.323Z" fill="#D3D3D3"/>
<path d="M381.117 150.878H374.224V176.884H381.117V150.878Z" fill="#D3D3D3"/>
<path d="M335.345 248.381H331.49V280.266H335.345V248.381Z" fill="#E8E8E8"/>
<path d="M341.129 248.381H337.274V280.266H341.129V248.381Z" fill="#E8E8E8"/>
<path d="M337.481 290.895H333.979C331.376 290.895 329.268 288.798 329.263 286.21L329.254 271.014C329.254 268.426 331.362 266.329 333.965 266.324H337.467C340.07 266.324 342.179 268.421 342.183 271.01L342.192 286.205C342.192 288.794 340.084 290.895 337.481 290.895Z" fill="#A57B3D"/>
<path d="M329.107 180.621C329.135 180.585 329.222 180.435 329.222 180.22H326.014C326.014 178.051 328.534 176.688 334.433 175.658C339.099 174.842 345.277 174.396 351.84 174.396C358.399 174.396 364.581 174.842 369.247 175.658C375.15 176.688 377.666 178.055 377.666 180.22H374.458C374.458 180.439 374.545 180.59 374.573 180.621C373.706 179.596 365.924 177.581 351.84 177.581C337.756 177.581 329.974 179.596 329.107 180.621Z" fill="#D3D3D3"/>
<path d="M329.107 150.878C329.135 150.842 329.222 150.691 329.222 150.477H326.014C326.014 148.307 328.534 146.945 334.433 145.915C339.099 145.099 345.277 144.652 351.84 144.652C358.399 144.652 364.581 145.099 369.247 145.915C375.15 146.945 377.666 148.312 377.666 150.477H374.458C374.458 150.696 374.545 150.846 374.573 150.878C373.706 149.852 365.924 147.838 351.84 147.838C337.756 147.838 329.974 149.852 329.107 150.878Z" fill="#D3D3D3"/>
<path d="M329.107 187.613C329.135 187.577 329.222 187.426 329.222 187.212H326.014C326.014 185.042 328.534 183.68 334.433 182.65C339.099 181.834 345.277 181.387 351.84 181.387C358.399 181.387 364.581 181.834 369.247 182.65C375.15 183.68 377.666 185.047 377.666 187.212H374.458C374.458 187.431 374.545 187.581 374.573 187.613C373.706 186.588 365.924 184.573 351.84 184.573C337.756 184.573 329.974 186.588 329.107 187.613Z" fill="#D3D3D3"/>
<path d="M329.107 174.391C329.135 174.355 329.222 174.204 329.222 173.99H326.014C326.014 171.821 328.534 170.458 334.433 169.428C339.099 168.612 345.277 168.165 351.84 168.165C358.399 168.165 364.581 168.612 369.247 169.428C375.15 170.458 377.666 171.825 377.666 173.99H374.458C374.458 174.209 374.545 174.359 374.573 174.391C373.706 173.366 365.924 171.351 351.84 171.351C337.756 171.351 329.974 173.366 329.107 174.391Z" fill="#D3D3D3"/>
<path d="M329.107 165.649C329.135 165.613 329.222 165.463 329.222 165.248H326.014C326.014 163.079 328.534 161.716 334.433 160.686C339.099 159.87 345.277 159.424 351.84 159.424C358.399 159.424 364.581 159.87 369.247 160.686C375.15 161.716 377.666 163.083 377.666 165.248H374.458C374.458 165.467 374.545 165.618 374.573 165.649C373.706 164.624 365.924 162.609 351.84 162.609C337.756 162.609 329.974 164.624 329.107 165.649Z" fill="#D3D3D3"/>
<path d="M329.107 159.419C329.135 159.383 329.222 159.232 329.222 159.018H326.014C326.014 156.849 328.534 155.486 334.433 154.456C339.099 153.64 345.277 153.193 351.84 153.193C358.399 153.193 364.581 153.64 369.247 154.456C375.15 155.486 377.666 156.853 377.666 159.018H374.458C374.458 159.237 374.545 159.387 374.573 159.419C373.706 158.394 365.924 156.379 351.84 156.379C337.756 156.379 329.974 158.394 329.107 159.419Z" fill="#D3D3D3"/>
<path d="M354.287 149.461H350.213C348.884 149.461 347.807 148.39 347.807 147.068V138.399C347.807 137.077 348.884 136.006 350.213 136.006H354.287C355.616 136.006 356.693 137.077 356.693 138.399V147.068C356.698 148.39 355.621 149.461 354.287 149.461Z" fill="#D3D3D3"/>
<path d="M354.287 162.058H350.213C348.884 162.058 347.807 160.987 347.807 159.665V150.996C347.807 149.675 348.884 148.604 350.213 148.604H354.287C355.616 148.604 356.693 149.675 356.693 150.996V159.665C356.698 160.987 355.621 162.058 354.287 162.058Z" fill="#D3D3D3"/>
<path d="M354.287 174.323H350.213C348.884 174.323 347.807 173.252 347.807 171.93V163.261C347.807 161.94 348.884 160.868 350.213 160.868H354.287C355.616 160.868 356.693 161.94 356.693 163.261V171.93C356.698 173.252 355.621 174.323 354.287 174.323Z" fill="#D3D3D3"/>
<path d="M354.287 186.925H350.213C348.884 186.925 347.807 185.854 347.807 184.532V175.863C347.807 174.542 348.884 173.47 350.213 173.47H354.287C355.616 173.47 356.693 174.542 356.693 175.863V184.532C356.698 185.849 355.621 186.925 354.287 186.925Z" fill="#D3D3D3"/>
<path d="M354.287 199.509H350.213C348.884 199.509 347.807 198.438 347.807 197.116V188.447C347.807 187.125 348.884 186.054 350.213 186.054H354.287C355.616 186.054 356.693 187.125 356.693 188.447V197.116C356.698 198.438 355.621 199.509 354.287 199.509Z" fill="#D3D3D3"/>
<path d="M354.287 211.773H350.213C348.884 211.773 347.807 210.702 347.807 209.381V200.712C347.807 199.39 348.884 198.319 350.213 198.319H354.287C355.616 198.319 356.693 199.39 356.693 200.712V209.381C356.698 210.702 355.621 211.773 354.287 211.773Z" fill="#D3D3D3"/>
<path d="M374.005 213.934V218.487C374.005 222.416 370.801 225.601 366.85 225.601H357.867C353.917 225.601 350.713 222.416 350.713 218.487V213.934C350.713 210.005 353.917 206.819 357.867 206.819H366.85C370.801 206.819 374.005 210.005 374.005 213.934Z" fill="#E8E8E8"/>
<path d="M353.788 213.934V218.487C353.788 222.416 350.584 225.601 346.634 225.601H337.65C333.7 225.601 330.496 222.416 330.496 218.487V213.934C330.496 210.005 333.7 206.819 337.65 206.819H346.634C350.584 206.819 353.788 210.005 353.788 213.934Z" fill="#E8E8E8"/>
<path d="M371.268 121.308H331.715C327.32 121.308 323.759 117.766 323.759 113.396V88.2598C323.759 83.889 327.32 80.3477 331.715 80.3477H371.268C375.663 80.3477 379.225 83.889 379.225 88.2598V113.396C379.225 117.766 375.663 121.308 371.268 121.308Z" fill="#E8E8E8"/>
<path d="M365.635 126.139H341.458C339.666 126.139 338.209 124.694 338.209 122.907V121.308H368.926V122.866C368.926 124.671 367.454 126.139 365.635 126.139Z" fill="#E8E8E8"/>
<path d="M334.35 131.216H367.115C368.183 131.216 369.044 132.078 369.044 133.135V135.915C369.044 136.977 368.178 137.834 367.115 137.834H336.279C335.211 137.834 334.35 136.972 334.35 135.915V131.216Z" fill="#E8E8E8"/>
<path d="M345.872 105.597H336.747C333.97 105.597 331.715 103.355 331.715 100.593C331.715 97.8309 333.97 95.5885 336.747 95.5885H345.872C348.65 95.5885 350.905 97.8309 350.905 100.593C350.905 103.359 348.654 105.597 345.872 105.597Z" fill="#2B2B2B"/>
<path d="M368.972 105.597H359.842C357.064 105.597 354.81 103.355 354.81 100.593C354.81 97.8309 357.064 95.5885 359.842 95.5885H368.967C371.744 95.5885 373.999 97.8309 373.999 100.593C373.999 103.359 371.749 105.597 368.972 105.597Z" fill="#2B2B2B"/>
<path d="M343.535 104.203C345.15 104.203 346.459 102.901 346.459 101.295C346.459 99.6889 345.15 98.387 343.535 98.387C341.92 98.387 340.611 99.6889 340.611 101.295C340.611 102.901 341.92 104.203 343.535 104.203Z" fill="#C91F1F"/>
<path d="M367.33 104.203C368.945 104.203 370.254 102.901 370.254 101.295C370.254 99.6889 368.945 98.387 367.33 98.387C365.715 98.387 364.406 99.6889 364.406 101.295C364.406 102.901 365.715 104.203 367.33 104.203Z" fill="#C91F1F"/>
<path d="M345.758 117.876H350.877V114.125H349.53C347.444 114.125 345.758 115.802 345.758 117.876Z" fill="#2B2B2B"/>
<path d="M352.252 117.876H357.371C357.371 115.802 355.68 114.125 353.599 114.125H352.252V117.876Z" fill="#2B2B2B"/>
<path d="M377.671 159.018C377.671 161.188 375.15 162.55 369.247 163.585C364.586 164.396 358.403 164.847 351.84 164.847C345.281 164.847 339.099 164.396 334.438 163.585C328.534 162.55 326.014 161.188 326.014 159.018H329.708C331.908 160.089 339.429 161.657 351.84 161.657C364.265 161.657 371.786 160.089 373.981 159.018H377.671Z" fill="#E8E8E8"/>
<path d="M377.671 150.477C377.671 152.646 375.15 154.009 369.247 155.044C364.586 155.855 358.403 156.306 351.84 156.306C345.281 156.306 339.099 155.855 334.438 155.044C328.534 154.009 326.014 152.646 326.014 150.477H329.708C331.908 151.548 339.429 153.116 351.84 153.116C364.265 153.116 371.786 151.548 373.981 150.477H377.671Z" fill="#E8E8E8"/>
<path d="M377.671 165.248C377.671 167.418 375.15 168.781 369.247 169.815C364.586 170.626 358.403 171.078 351.84 171.078C345.281 171.078 339.099 170.626 334.438 169.815C328.534 168.781 326.014 167.418 326.014 165.248H329.708C331.908 166.319 339.429 167.887 351.84 167.887C364.265 167.887 371.786 166.319 373.981 165.248H377.671Z" fill="#E8E8E8"/>
<path d="M377.671 173.99C377.671 176.16 375.15 177.522 369.247 178.557C364.586 179.368 358.403 179.819 351.84 179.819C345.281 179.819 339.099 179.368 334.438 178.557C328.534 177.522 326.014 176.16 326.014 173.99H329.708C331.908 175.061 339.429 176.629 351.84 176.629C364.265 176.629 371.786 175.061 373.981 173.99H377.671Z" fill="#E8E8E8"/>
<path d="M377.671 180.22C377.671 182.39 375.15 183.753 369.247 184.787C364.586 185.598 358.403 186.05 351.84 186.05C345.281 186.05 339.099 185.598 334.438 184.787C328.534 183.753 326.014 182.39 326.014 180.22H329.708C331.908 181.291 339.429 182.859 351.84 182.859C364.265 182.859 371.786 181.291 373.981 180.22H377.671V180.22Z" fill="#E8E8E8"/>
<path d="M377.671 187.212C377.671 189.381 375.15 190.744 369.247 191.779C364.586 192.59 358.403 193.041 351.84 193.041C345.281 193.041 339.099 192.59 334.438 191.779C328.534 190.744 326.014 189.381 326.014 187.212H329.708C331.908 188.283 339.429 189.851 351.84 189.851C364.265 189.851 371.786 188.283 373.981 187.212H377.671Z" fill="#E8E8E8"/>
<path d="M351.697 195.279C348.315 195.279 345.574 192.554 345.574 189.19V152.956C345.574 149.593 348.315 146.867 351.697 146.867C355.08 146.867 357.821 149.593 357.821 152.956V189.19C357.816 192.554 355.075 195.279 351.697 195.279Z" fill="#E8E8E8"/>
<path d="M326.765 155.326C330.524 155.326 333.571 152.296 333.571 148.558C333.571 144.82 330.524 141.79 326.765 141.79C323.006 141.79 319.959 144.82 319.959 148.558C319.959 152.296 323.006 155.326 326.765 155.326Z" fill="#E8E8E8"/>
<path d="M336.312 253.923C339.522 253.923 342.124 251.336 342.124 248.144C342.124 244.952 339.522 242.365 336.312 242.365C333.103 242.365 330.501 244.952 330.501 248.144C330.501 251.336 333.103 253.923 336.312 253.923Z" fill="#E8E8E8"/>
<path d="M330.07 152.655H323.177V178.662H330.07V152.655Z" fill="#E8E8E8"/>
<path d="M326.98 188.926C330.739 188.926 333.786 185.895 333.786 182.157C333.786 178.419 330.739 175.389 326.98 175.389C323.221 175.389 320.174 178.419 320.174 182.157C320.174 185.895 323.221 188.926 326.98 188.926Z" fill="#E8E8E8"/>
<path d="M326.016 179.451V182.081H349.537V179.451H326.016Z" fill="#E8E8E8"/>
<path d="M326.019 184.339V186.969H349.539V184.339H326.019Z" fill="#E8E8E8"/>
<path d="M357.042 188.926H350.112C348.691 188.926 347.536 187.782 347.536 186.364V180.353C347.536 178.94 348.687 177.791 350.112 177.791H357.042C358.462 177.791 359.617 178.935 359.617 180.353V186.364C359.613 187.782 358.462 188.926 357.042 188.926Z" fill="#E8E8E8"/>
<path d="M347.499 127.707H346.244C345.717 127.707 345.295 127.283 345.295 126.763V125.514C345.295 124.99 345.721 124.571 346.244 124.571H347.499C348.027 124.571 348.448 124.995 348.448 125.514V126.763C348.448 127.287 348.022 127.707 347.499 127.707Z" fill="#D3D3D3"/>
<path d="M351.01 127.707H349.75C349.222 127.707 348.801 127.283 348.801 126.763V125.514C348.801 124.99 349.227 124.571 349.75 124.571H351.005C351.532 124.571 351.954 124.995 351.954 125.514V126.763C351.959 127.287 351.532 127.707 351.01 127.707Z" fill="#D3D3D3"/>
<path d="M354.461 127.707H353.206C352.678 127.707 352.257 127.283 352.257 126.763V125.514C352.257 124.99 352.683 124.571 353.206 124.571H354.461C354.988 124.571 355.41 124.995 355.41 125.514V126.763C355.41 127.287 354.984 127.707 354.461 127.707Z" fill="#D3D3D3"/>
<path d="M358.292 127.707H357.037C356.51 127.707 356.088 127.283 356.088 126.763V125.514C356.088 124.99 356.514 124.571 357.037 124.571H358.292C358.819 124.571 359.241 124.995 359.241 125.514V126.763C359.241 127.287 358.819 127.707 358.292 127.707Z" fill="#D3D3D3"/>
<path d="M361.803 127.707H360.547C360.02 127.707 359.599 127.283 359.599 126.763V125.514C359.599 124.99 360.025 124.571 360.547 124.571H361.803C362.33 124.571 362.752 124.995 362.752 125.514V126.763C362.752 127.287 362.33 127.707 361.803 127.707Z" fill="#D3D3D3"/>
<path d="M365.254 127.707H363.999C363.471 127.707 363.05 127.283 363.05 126.763V125.514C363.05 124.99 363.476 124.571 363.999 124.571H365.254C365.781 124.571 366.203 124.995 366.203 125.514V126.763C366.203 127.287 365.781 127.707 365.254 127.707Z" fill="#D3D3D3"/>
<path d="M347.499 131.868H346.244C345.717 131.868 345.295 131.444 345.295 130.924V129.676C345.295 129.151 345.721 128.732 346.244 128.732H347.499C348.027 128.732 348.448 129.156 348.448 129.676V130.924C348.448 131.444 348.022 131.868 347.499 131.868Z" fill="#D3D3D3"/>
<path d="M351.01 131.868H349.75C349.222 131.868 348.801 131.444 348.801 130.924V129.676C348.801 129.151 349.227 128.732 349.75 128.732H351.005C351.532 128.732 351.954 129.156 351.954 129.676V130.924C351.959 131.444 351.532 131.868 351.01 131.868Z" fill="#D3D3D3"/>
<path d="M354.461 131.868H353.206C352.678 131.868 352.257 131.444 352.257 130.924V129.676C352.257 129.151 352.683 128.732 353.206 128.732H354.461C354.988 128.732 355.41 129.156 355.41 129.676V130.924C355.41 131.444 354.984 131.868 354.461 131.868Z" fill="#D3D3D3"/>
<path d="M358.292 131.868H357.037C356.51 131.868 356.088 131.444 356.088 130.924V129.676C356.088 129.151 356.514 128.732 357.037 128.732H358.292C358.819 128.732 359.241 129.156 359.241 129.676V130.924C359.241 131.444 358.819 131.868 358.292 131.868Z" fill="#D3D3D3"/>
<path d="M361.803 131.868H360.547C360.02 131.868 359.599 131.444 359.599 130.924V129.676C359.599 129.151 360.025 128.732 360.547 128.732H361.803C362.33 128.732 362.752 129.156 362.752 129.676V130.924C362.752 131.444 362.33 131.868 361.803 131.868Z" fill="#D3D3D3"/>
<path d="M365.254 131.868H363.999C363.471 131.868 363.05 131.444 363.05 130.924V129.676C363.05 129.151 363.476 128.732 363.999 128.732H365.254C365.781 128.732 366.203 129.156 366.203 129.676V130.924C366.203 131.444 365.781 131.868 365.254 131.868Z" fill="#D3D3D3"/>
<path d="M337.64 121.308H334.35V134.52H337.64V121.308Z" fill="#E8E8E8"/>
<path d="M340.167 216.213H332.458V247.278H340.167V216.213Z" fill="#E8E8E8"/>
<path d="M370.475 290.895H366.973C364.37 290.895 362.262 288.798 362.257 286.21L362.248 271.014C362.248 268.426 364.356 266.329 366.96 266.324H370.461C373.064 266.324 375.173 268.421 375.177 271.01L375.186 286.205C375.186 288.794 373.078 290.895 370.475 290.895Z" fill="#A57B3D"/>
<path d="M375.567 278.639L361.955 278.585C360.502 278.58 359.328 277.4 359.333 275.955L359.37 267.382C359.374 265.937 360.561 264.77 362.014 264.775L375.626 264.829C377.079 264.834 378.252 266.014 378.248 267.459L378.211 276.032C378.207 277.477 377.02 278.644 375.567 278.639Z" fill="#874E22"/>
<path d="M342.504 278.639L328.892 278.585C327.439 278.58 326.266 277.4 326.271 275.955L326.307 267.382C326.312 265.937 327.499 264.77 328.952 264.775L342.564 264.829C344.017 264.834 345.19 266.014 345.185 267.459L345.149 276.032C345.14 277.477 343.957 278.644 342.504 278.639Z" fill="#874E22"/>
<path d="M363.045 227.57C360.171 227.57 357.32 227.219 354.575 226.531C352.265 225.961 349.987 225.132 347.815 224.075C345.363 222.89 343.035 221.395 340.904 219.64C339.221 218.254 337.668 216.709 336.288 215.046C334.533 212.94 333.025 210.625 331.824 208.173C330.765 206.017 329.931 203.752 329.354 201.441C328.666 198.725 328.313 195.894 328.313 193.032C328.313 192.394 328.332 191.751 328.364 191.127C328.593 186.934 329.574 182.868 331.283 179.04C334.785 171.187 341.064 164.943 348.965 161.456C352.801 159.761 356.89 158.786 361.115 158.553C361.752 158.517 362.399 158.503 363.036 158.503C365.909 158.503 368.756 158.854 371.501 159.542C373.829 160.121 376.116 160.946 378.27 161.999C380.731 163.188 383.06 164.683 385.177 166.433C386.832 167.792 388.385 169.332 389.783 171.009C391.552 173.133 393.051 175.449 394.247 177.891C395.306 180.043 396.14 182.312 396.718 184.623C397.405 187.34 397.758 190.17 397.758 193.032C397.758 193.666 397.74 194.308 397.708 194.942C397.474 199.149 396.493 203.214 394.788 207.029C391.287 214.882 385.003 221.13 377.102 224.612C373.27 226.308 369.182 227.283 364.956 227.516C364.328 227.552 363.682 227.57 363.045 227.57Z" fill="#997754"/>
<path d="M363.045 163.065C365.58 163.065 368.041 163.375 370.388 163.963C372.436 164.469 374.403 165.189 376.259 166.092C378.417 167.135 380.429 168.43 382.258 169.943C383.72 171.141 385.058 172.477 386.264 173.926C387.781 175.749 389.087 177.746 390.137 179.892C391.044 181.738 391.768 183.689 392.282 185.731C392.873 188.069 393.184 190.516 393.184 193.037C393.184 193.593 393.171 194.149 393.139 194.696C392.932 198.415 392.052 201.947 390.604 205.178C387.575 211.969 382.079 217.439 375.25 220.447C372.001 221.882 368.449 222.762 364.709 222.967C364.159 222.999 363.6 223.013 363.041 223.013C360.506 223.013 358.041 222.703 355.694 222.115C353.645 221.609 351.684 220.889 349.823 219.982C347.664 218.938 345.652 217.639 343.823 216.13C342.366 214.927 341.023 213.596 339.818 212.147C338.296 210.324 336.99 208.328 335.94 206.181C335.033 204.335 334.309 202.384 333.795 200.347C333.204 198.009 332.893 195.562 332.893 193.041C332.893 192.485 332.906 191.934 332.938 191.382C333.14 187.668 334.025 184.131 335.473 180.895C338.502 174.104 343.993 168.639 350.822 165.627C354.076 164.191 357.628 163.311 361.368 163.106C361.927 163.079 362.486 163.065 363.045 163.065ZM363.045 153.95C362.326 153.95 361.593 153.968 360.878 154.009C356.088 154.273 351.459 155.381 347.11 157.3C338.172 161.242 331.064 168.311 327.099 177.203C325.165 181.533 324.052 186.141 323.795 190.89C323.758 191.596 323.735 192.321 323.735 193.041C323.735 196.273 324.134 199.481 324.918 202.571C325.573 205.183 326.517 207.749 327.714 210.187C329.066 212.949 330.766 215.57 332.764 217.963C334.327 219.845 336.082 221.591 337.98 223.154C340.391 225.141 343.026 226.832 345.813 228.176C348.255 229.361 350.831 230.3 353.457 230.952C356.565 231.731 359.791 232.128 363.041 232.128C363.765 232.128 364.494 232.11 365.209 232.069C370.003 231.804 374.632 230.697 378.977 228.778C387.914 224.836 395.022 217.767 398.987 208.875C400.916 204.563 402.03 199.96 402.291 195.202C402.333 194.486 402.351 193.761 402.351 193.037C402.351 189.805 401.952 186.601 401.168 183.511C400.513 180.895 399.569 178.333 398.368 175.891C397.016 173.133 395.316 170.512 393.322 168.115C391.736 166.215 389.981 164.469 388.102 162.924C385.705 160.946 383.069 159.255 380.274 157.901C377.835 156.712 375.255 155.777 372.611 155.121C369.512 154.346 366.29 153.95 363.045 153.95Z" fill="#D9A85A"/>
<path d="M361.378 163.111L332.948 191.382C333.15 187.668 334.034 184.131 335.483 180.895L350.832 165.627C354.086 164.191 357.638 163.316 361.378 163.111Z" fill="#856244"/>
<path d="M376.263 166.096L335.95 206.181C335.042 204.335 334.318 202.384 333.805 200.347L370.388 163.968C372.436 164.474 374.403 165.189 376.263 166.096Z" fill="#856244"/>
<path d="M386.268 173.926L343.828 216.131C342.371 214.927 341.028 213.596 339.822 212.147L382.258 169.947C383.72 171.146 385.063 172.481 386.268 173.926Z" fill="#856244"/>
<path d="M392.286 185.731L355.698 222.115C353.65 221.609 351.688 220.889 349.827 219.986L390.141 179.897C391.048 181.743 391.773 183.693 392.286 185.731Z" fill="#856244"/>
<path d="M393.143 194.7C392.937 198.419 392.057 201.951 390.609 205.183L375.255 220.451C372.006 221.887 368.454 222.766 364.714 222.972L393.143 194.7Z" fill="#856244"/>
<path d="M363.045 197.631C365.594 197.631 367.66 195.576 367.66 193.041C367.66 190.506 365.594 188.452 363.045 188.452C360.496 188.452 358.43 190.506 358.43 193.041C358.43 195.576 360.496 197.631 363.045 197.631Z" fill="#D9A85A"/>
<path d="M413.67 98.0144L410.526 97.9912L409.177 279.429L412.321 279.452L413.67 98.0144Z" fill="#B29470"/>
<path d="M412.223 66L411.893 110.465C411.893 110.465 408.135 103.063 402.355 103.022C402.355 103.022 402.644 97.0242 403.854 89.6134C405.738 87.4303 408.85 86.0858 408.85 86.0858L404.936 83.9482C406.412 77.18 408.703 70.2068 412.223 66Z" fill="#A57B3D"/>
<path d="M421.536 103.163C415.757 103.122 411.889 110.465 411.889 110.465L412.223 65.9999C415.679 70.2568 417.87 77.2666 419.24 84.053H419.249C419.579 85.6573 419.854 87.257 420.097 88.8021L419.611 89.0573L417.114 90.3745C417.114 90.3745 418.942 91.1949 420.624 92.5804C421.385 98.6376 421.536 103.163 421.536 103.163Z" fill="#D9A75A"/>
<path d="M407.984 166.488L405.014 162.263C404.542 161.589 404.707 160.663 405.381 160.194C406.059 159.724 406.99 159.889 407.462 160.558L410.432 164.783C410.904 165.458 410.739 166.383 410.065 166.853C409.387 167.322 408.456 167.158 407.984 166.488Z" fill="#E8E8E8"/>
<path d="M415.968 162.391L411.719 165.344C411.041 165.814 410.11 165.649 409.638 164.979C409.166 164.305 409.331 163.38 410.005 162.91L414.254 159.957C414.932 159.487 415.862 159.652 416.334 160.322C416.811 160.992 416.646 161.917 415.968 162.391Z" fill="#E8E8E8"/>
<path d="M414.006 159.597L409.757 162.55C409.079 163.02 408.149 162.856 407.677 162.186C407.204 161.511 407.369 160.586 408.043 160.116L412.292 157.163C412.97 156.694 413.9 156.858 414.373 157.528C414.845 158.202 414.68 159.127 414.006 159.597Z" fill="#E8E8E8"/>
<path d="M417.935 165.18L413.686 168.133C413.008 168.603 412.077 168.439 411.605 167.769C411.133 167.094 411.298 166.169 411.972 165.7L416.22 162.746C416.899 162.277 417.829 162.441 418.301 163.111C418.773 163.785 418.608 164.711 417.935 165.18Z" fill="#E8E8E8"/>
</svg>
